# xmcd
#
# Track frame offsets:
#	150
#	16862
#	40716
#	62288
#	72553
#	88860
#	104159
#	155798
#	167823
#
# Disc length: 2829 seconds
#
# Revision: 1
# Processed by: cddbd v1.5.2PL0 Copyright (c) Steve Scherf et al.
# Submitted via: EZCDAudioConverter 1.3.4.1
#
DISCID=760b0b09
DTITLE=Daevid Allen and Euterpe - Good Morning
DYEAR=1976
DGENRE=
TTITLE0=Children Of The New World
TTITLE1=Good Morning
TTITLE2=Spirit
TTITLE3=Song Of Satisfaction
TTITLE4=Have You Seen My Friend?
TTITLE5=French Garden
TTITLE6=Wise Man In Your Heart
TTITLE7=She Doesn't She...
TTITLE8=Euterpe Gratitude Piece
EXTD=
EXTT0=
EXTT1=
EXTT2=
EXTT3=
EXTT4=
EXTT5=
EXTT6=
EXTT7=
EXTT8=
PLAYORDER=
